ffmpeg version 4.2.4-1ubuntu0.1 Copyright (c) 2000-2020 the FFmpeg developers
  built with gcc 9 (Ubuntu 9.3.0-10ubuntu2)
  configuration: --prefix=/usr --extra-version=1ubuntu0.1 --toolchain=hardened --libdir=/usr/lib/x86_64-linux-gnu --incdir=/usr/include/x86_64-linux-gnu --arch=amd64 --enable-gpl --disable-stripping --enable-avresample --disable-filter=resample --enable-avisynth --enable-gnutls --enable-ladspa --enable-libaom --enable-libass --enable-libbluray --enable-libbs2b --enable-libcaca --enable-libcdio --enable-libcodec2 --enable-libflite --enable-libfontconfig --enable-libfreetype --enable-libfribidi --enable-libgme --enable-libgsm --enable-libjack --enable-libmp3lame --enable-libmysofa --enable-libopenjpeg --enable-libopenmpt --enable-libopus --enable-libpulse --enable-librsvg --enable-librubberband --enable-libshine --enable-libsnappy --enable-libsoxr --enable-libspeex --enable-libssh --enable-libtheora --enable-libtwolame --enable-libvidstab --enable-libvorbis --enable-libvpx --enable-libwavpack --enable-libwebp --enable-libx265 --enable-libxml2 --enable-libxvid --enable-libzmq --enable-libzvbi --enable-lv2 --enable-omx --enable-openal --enable-opencl --enable-opengl --enable-sdl2 --enable-libdc1394 --enable-libdrm --enable-libiec61883 --enable-nvenc --enable-chromaprint --enable-frei0r --enable-libx264 --enable-shared
  WARNING: library configuration mismatch
  avcodec     configuration: --prefix=/usr --extra-version=1ubuntu0.1 --toolchain=hardened --libdir=/usr/lib/x86_64-linux-gnu --incdir=/usr/include/x86_64-linux-gnu --arch=amd64 --enable-gpl --disable-stripping --enable-avresample --disable-filter=resample --enable-avisynth --enable-gnutls --enable-ladspa --enable-libaom --enable-libass --enable-libbluray --enable-libbs2b --enable-libcaca --enable-libcdio --enable-libcodec2 --enable-libflite --enable-libfontconfig --enable-libfreetype --enable-libfribidi --enable-libgme --enable-libgsm --enable-libjack --enable-libmp3lame --enable-libmysofa --enable-libopenjpeg --enable-libopenmpt --enable-libopus --enable-libpulse --enable-librsvg --enable-librubberband --enable-libshine --enable-libsnappy --enable-libsoxr --enable-libspeex --enable-libssh --enable-libtheora --enable-libtwolame --enable-libvidstab --enable-libvorbis --enable-libvpx --enable-libwavpack --enable-libwebp --enable-libx265 --enable-libxml2 --enable-libxvid --enable-libzmq --enable-libzvbi --enable-lv2 --enable-omx --enable-openal --enable-opencl --enable-opengl --enable-sdl2 --enable-libdc1394 --enable-libdrm --enable-libiec61883 --enable-nvenc --enable-chromaprint --enable-frei0r --enable-libx264 --enable-shared --enable-version3 --disable-doc --disable-programs --enable-libaribb24 --enable-liblensfun --enable-libopencore_amrnb --enable-libopencore_amrwb --enable-libtesseract --enable-libvo_amrwbenc
  libavutil      56. 31.100 / 56. 31.100
  libavcodec     58. 54.100 / 58. 54.100
  libavformat    58. 29.100 / 58. 29.100
  libavdevice    58.  8.100 / 58.  8.100
  libavfilter     7. 57.100 /  7. 57.100
  libavresample   4.  0.  0 /  4.  0.  0
  libswscale      5.  5.100 /  5.  5.100
  libswresample   3.  5.100 /  3.  5.100
  libpostproc    55.  5.100 / 55.  5.100
Input #0, image2pipe, from 'pipe:':
  Duration: N/A, bitrate: N/A
    Stream #0:0: Video: ppm, rgb24, 320x240, 20 fps, 20 tbr, 20 tbn, 20 tbc
Stream mapping:
  Stream #0:0 -> #0:0 (ppm (native) -> h264 (libx264))
[libx264 @ 0x558cb05e0f40] using cpu capabilities: MMX2 SSE2Fast SSSE3 SSE4.2 AVX FMA3 BMI2 AVX2
[libx264 @ 0x558cb05e0f40] profile High, level 1.3
[libx264 @ 0x558cb05e0f40] 264 - core 155 r2917 0a84d98 - H.264/MPEG-4 AVC codec - Copyleft 2003-2018 - http://www.videolan.org/x264.html - options: cabac=1 ref=3 deblock=1:0:0 analyse=0x3:0x113 me=hex subme=7 psy=1 psy_rd=1.00:0.00 mixed_ref=1 me_range=16 chroma_me=1 trellis=1 8x8dct=1 cqm=0 deadzone=21,11 fast_pskip=1 chroma_qp_offset=-2 threads=7 lookahead_threads=1 sliced_threads=0 nr=0 decimate=1 interlaced=0 bluray_compat=0 constrained_intra=0 bframes=3 b_pyramid=2 b_adapt=1 b_bias=0 direct=1 weightb=1 open_gop=0 weightp=2 keyint=250 keyint_min=20 scenecut=40 intra_refresh=0 rc_lookahead=40 rc=abr mbtree=1 bitrate=400 ratetol=1.0 qcomp=0.60 qpmin=0 qpmax=69 qpstep=4 ip_ratio=1.40 aq=1:1.00
Output #0, mp4, to './mission_records/ffd30ced-7e4a-4e27-8c0d-915735244981/video.mp4':
  Metadata:
    encoder         : Lavf58.29.100
    Stream #0:0: Video: h264 (libx264) (avc1 / 0x31637661), yuv420p, 320x240, q=-1--1, 400 kb/s, 20 fps, 10240 tbn, 20 tbc
    Metadata:
      encoder         : Lavc58.54.100 libx264
    Side data:
      cpb: bitrate max/min/avg: 0/0/400000 buffer size: 0 vbv_delay: -1
frame=   32 fps=0.0 q=0.0 size=       0kB time=00:00:00.00 bitrate=N/A speed=   0x    frame=   41 fps= 40 q=0.0 size=       0kB time=00:00:00.00 bitrate=N/A speed=   0x    frame=   50 fps= 32 q=0.0 size=       0kB time=00:00:00.00 bitrate=N/A speed=   0x    frame=   59 fps= 28 q=37.0 size=       0kB time=00:00:00.25 bitrate=   1.5kbits/s speed=0.121x    frame=   68 fps= 26 q=35.0 size=       0kB time=00:00:00.70 bitrate=   0.5kbits/s speed=0.27x    frame=   77 fps= 25 q=32.0 size=       0kB time=00:00:01.15 bitrate=   0.3kbits/s speed=0.372x    frame=   86 fps= 24 q=31.0 size=       0kB time=00:00:01.60 bitrate=   0.2kbits/s speed=0.441x    frame=   95 fps= 23 q=32.0 size=       0kB time=00:00:02.05 bitrate=   0.2kbits/s speed=0.494x    frame=  104 fps= 22 q=32.0 size=       0kB time=00:00:02.50 bitrate=   0.2kbits/s speed=0.538x    frame=  113 fps= 22 q=32.0 size=       0kB time=00:00:02.95 bitrate=   0.1kbits/s speed=0.571x    frame=  123 fps= 22 q=32.0 size=       0kB time=00:00:03.45 bitrate=   0.1kbits/s speed=0.603x    frame=  132 fps= 21 q=32.0 size=       0kB time=00:00:03.90 bitrate=   0.1kbits/s speed=0.627x    frame=  141 fps= 21 q=32.0 size=       0kB time=00:00:04.35 bitrate=   0.1kbits/s speed=0.647x    frame=  150 fps= 21 q=32.0 size=       0kB time=00:00:04.80 bitrate=   0.1kbits/s speed=0.663x    frame=  159 fps= 20 q=31.0 size=     256kB time=00:00:05.25 bitrate= 399.5kbits/s speed=0.674x    frame=  168 fps= 20 q=31.0 size=     256kB time=00:00:05.70 bitrate= 368.0kbits/s speed=0.687x    frame=  177 fps= 20 q=31.0 size=     256kB time=00:00:06.15 bitrate= 341.1kbits/s speed=0.696x    frame=  187 fps= 20 q=31.0 size=     256kB time=00:00:06.65 bitrate= 315.4kbits/s speed=0.71x    frame=  196 fps= 20 q=31.0 size=     256kB time=00:00:07.10 bitrate= 295.4kbits/s speed=0.719x    frame=  205 fps= 20 q=31.0 size=     256kB time=00:00:07.55 bitrate= 277.8kbits/s speed=0.727x    frame=  215 fps= 20 q=31.0 size=     256kB time=00:00:08.05 bitrate= 260.6kbits/s speed=0.736x    frame=  224 fps= 20 q=31.0 size=     256kB time=00:00:08.50 bitrate= 246.8kbits/s speed=0.742x    frame=  233 fps= 19 q=32.0 size=     256kB time=00:00:08.95 bitrate= 234.4kbits/s speed=0.746x    frame=  242 fps= 19 q=32.0 size=     256kB time=00:00:09.40 bitrate= 223.1kbits/s speed=0.75x    frame=  251 fps= 19 q=32.0 size=     256kB time=00:00:09.85 bitrate= 212.9kbits/s speed=0.752x    frame=  260 fps= 19 q=32.0 size=     512kB time=00:00:10.30 bitrate= 407.2kbits/s speed=0.756x    frame=  270 fps= 19 q=32.0 size=     512kB time=00:00:10.80 bitrate= 388.4kbits/s speed=0.763x    frame=  279 fps= 19 q=32.0 size=     512kB time=00:00:11.25 bitrate= 372.9kbits/s speed=0.765x    frame=  288 fps= 19 q=32.0 size=     512kB time=00:00:11.70 bitrate= 358.5kbits/s speed=0.77x    frame=  297 fps= 19 q=32.0 size=     512kB time=00:00:12.15 bitrate= 345.2kbits/s speed=0.772x    frame=  307 fps= 19 q=32.0 size=     512kB time=00:00:12.65 bitrate= 331.6kbits/s speed=0.776x    frame=  317 fps= 19 q=32.0 size=     512kB time=00:00:13.15 bitrate= 319.0kbits/s speed=0.782x    frame=  326 fps= 19 q=32.0 size=     512kB time=00:00:13.60 bitrate= 308.4kbits/s speed=0.783x    frame=  335 fps= 19 q=32.0 size=     512kB time=00:00:14.05 bitrate= 298.6kbits/s speed=0.786x    frame=  344 fps= 19 q=32.0 size=     512kB time=00:00:14.50 bitrate= 289.3kbits/s speed=0.788x    frame=  353 fps= 19 q=32.0 size=     512kB time=00:00:14.95 bitrate= 280.6kbits/s speed=0.79x    frame=  362 fps= 19 q=32.0 size=     768kB time=00:00:15.40 bitrate= 408.6kbits/s speed=0.792x    frame=  371 fps= 19 q=32.0 size=     768kB time=00:00:15.85 bitrate= 397.0kbits/s speed=0.794x    frame=  380 fps= 19 q=32.0 size=     768kB time=00:00:16.30 bitrate= 386.0kbits/s speed=0.795x    frame=  390 fps= 19 q=32.0 size=     768kB time=00:00:16.80 bitrate= 374.5kbits/s speed=0.798x    frame=  399 fps= 19 q=32.0 size=     768kB time=00:00:17.25 bitrate= 364.7kbits/s speed= 0.8x    frame=  408 fps= 18 q=32.0 size=     768kB time=00:00:17.70 bitrate= 355.5kbits/s speed=0.801x    frame=  417 fps= 18 q=32.0 size=     768kB time=00:00:18.15 bitrate= 346.7kbits/s speed=0.803x    frame=  426 fps= 18 q=32.0 size=     768kB time=00:00:18.60 bitrate= 338.3kbits/s speed=0.804x    frame=  435 fps= 18 q=32.0 size=     768kB time=00:00:19.05 bitrate= 330.3kbits/s speed=0.805x    frame=  444 fps= 18 q=32.0 size=     768kB time=00:00:19.50 bitrate= 322.7kbits/s speed=0.807x    frame=  453 fps= 18 q=32.0 size=     768kB time=00:00:19.95 bitrate= 315.4kbits/s speed=0.808x    frame=  463 fps= 18 q=32.0 size=    1024kB time=00:00:20.45 bitrate= 410.2kbits/s speed=0.81x    frame=  472 fps= 18 q=32.0 size=    1024kB time=00:00:20.90 bitrate= 401.4kbits/s speed=0.812x    frame=  481 fps= 18 q=32.0 size=    1024kB time=00:00:21.35 bitrate= 392.9kbits/s speed=0.812x    frame=  490 fps= 18 q=32.0 size=    1024kB time=00:00:21.80 bitrate= 384.8kbits/s speed=0.814x    frame=  499 fps= 18 q=32.0 size=    1024kB time=00:00:22.25 bitrate= 377.0kbits/s speed=0.815x    frame=  509 fps= 18 q=32.0 size=    1024kB time=00:00:22.75 bitrate= 368.7kbits/s speed=0.817x    frame=  518 fps= 18 q=32.0 size=    1024kB time=00:00:23.20 bitrate= 361.6kbits/s speed=0.819x    frame=  527 fps= 18 q=32.0 size=    1024kB time=00:00:23.65 bitrate= 354.7kbits/s speed=0.82x    frame=  536 fps= 18 q=33.0 size=    1024kB time=00:00:24.10 bitrate= 348.1kbits/s speed=0.821x    frame=  545 fps= 18 q=33.0 size=    1024kB time=00:00:24.55 bitrate= 341.7kbits/s speed=0.821x    frame=  554 fps= 18 q=33.0 size=    1024kB time=00:00:25.00 bitrate= 335.6kbits/s speed=0.822x    frame=  563 fps= 18 q=33.0 size=    1280kB time=00:00:25.45 bitrate= 412.0kbits/s speed=0.823x    frame=  572 fps= 18 q=33.0 size=    1280kB time=00:00:25.90 bitrate= 404.9kbits/s speed=0.824x    frame=  581 fps= 18 q=33.0 size=    1280kB time=00:00:26.35 bitrate= 398.0kbits/s speed=0.824x    frame=  590 fps= 18 q=33.0 size=    1280kB time=00:00:26.80 bitrate= 391.3kbits/s speed=0.825x    frame=  599 fps= 18 q=33.0 size=    1280kB time=00:00:27.25 bitrate= 384.8kbits/s speed=0.825x    frame=  609 fps= 18 q=33.0 size=    1280kB time=00:00:27.75 bitrate= 377.9kbits/s speed=0.827x    frame=  618 fps= 18 q=33.0 size=    1280kB time=00:00:28.20 bitrate= 371.8kbits/s speed=0.827x    frame=  627 fps= 18 q=33.0 size=    1280kB time=00:00:28.65 bitrate= 366.0kbits/s speed=0.828x    frame=  636 fps= 18 q=32.0 size=    1280kB time=00:00:29.10 bitrate= 360.3kbits/s speed=0.829x    frame=  645 fps= 18 q=32.0 size=    1280kB time=00:00:29.55 bitrate= 354.9kbits/s speed=0.83x    frame=  654 fps= 18 q=32.0 size=    1280kB time=00:00:30.00 bitrate= 349.5kbits/s speed=0.831x    frame=  654 fps= 18 q=-1.0 Lsize=    1609kB time=00:00:32.55 bitrate= 404.8kbits/s speed=0.896x    
video:1600kB audio:0kB subtitle:0kB other streams:0kB global headers:0kB muxing overhead: 0.530858%
[libx264 @ 0x558cb05e0f40] frame I:3     Avg QP:27.10  size:  9304
[libx264 @ 0x558cb05e0f40] frame P:164   Avg QP:30.04  size:  4075
[libx264 @ 0x558cb05e0f40] frame B:487   Avg QP:32.60  size:  1933
[libx264 @ 0x558cb05e0f40] consecutive B-frames:  0.6%  0.3%  0.0% 99.1%
[libx264 @ 0x558cb05e0f40] mb I  I16..4: 15.4% 21.1% 63.4%
[libx264 @ 0x558cb05e0f40] mb P  I16..4:  5.5%  2.4%  9.4%  P16..4: 36.6% 26.2% 15.9%  0.0%  0.0%    skip: 4.0%
[libx264 @ 0x558cb05e0f40] mb B  I16..4:  1.0%  0.1%  0.8%  B16..8: 43.0% 15.0%  7.2%  direct:12.7%  skip:20.1%  L0:45.3% L1:48.7% BI: 6.0%
[libx264 @ 0x558cb05e0f40] final ratefactor: 27.41
[libx264 @ 0x558cb05e0f40] 8x8 transform intra:12.8% inter:18.5%
[libx264 @ 0x558cb05e0f40] coded y,uvDC,uvAC intra: 86.2% 27.4% 11.1% inter: 28.2% 5.3% 0.6%
[libx264 @ 0x558cb05e0f40] i16 v,h,dc,p:  6% 30% 55% 10%
[libx264 @ 0x558cb05e0f40] i8 v,h,dc,ddl,ddr,vr,hd,vl,hu:  6% 15% 30%  7% 10%  7% 12%  4%  9%
[libx264 @ 0x558cb05e0f40] i4 v,h,dc,ddl,ddr,vr,hd,vl,hu: 15% 20% 45%  4%  4%  3%  4%  3%  4%
[libx264 @ 0x558cb05e0f40] i8c dc,h,v,p: 75% 19%  5%  1%
[libx264 @ 0x558cb05e0f40] Weighted P-Frames: Y:9.8% UV:0.6%
[libx264 @ 0x558cb05e0f40] ref P L0: 53.6%  7.9% 23.7% 13.6%  1.1%
[libx264 @ 0x558cb05e0f40] ref B L0: 86.0% 10.5%  3.5%
[libx264 @ 0x558cb05e0f40] ref B L1: 94.6%  5.4%
[libx264 @ 0x558cb05e0f40] kb/s:400.68
